<svg width="339" height="120" viewBox="0 0 339 120" fill="none" xmlns="http://www.w3.org/2000/svg">
<g id="logo">
<g id="Group 4">
<path id="Fill 3" fill-rule="evenodd" clip-rule="evenodd" d="M140.949 91.5103H137.857L134.22 95.5294V87.7468H131.751V93.6276C131.303 92.9284 130.702 92.3705 129.95 91.9474C129.136 91.4885 128.264 91.2576 127.337 91.2576C126.052 91.2576 124.915 91.701 123.926 92.5829C123.43 93.0293 123.043 93.5253 122.765 94.0693C122.723 93.9857 122.676 93.9019 122.629 93.8182C122.17 93.0309 121.531 92.4062 120.71 91.9474C119.896 91.4885 119.024 91.2576 118.096 91.2576C116.812 91.2576 115.676 91.701 114.686 92.5829C114.213 93.0075 113.841 93.4773 113.566 93.9902C113.351 93.516 113.062 93.0866 112.702 92.6991C111.803 91.7381 110.712 91.2576 109.426 91.2576C108.835 91.2576 108.281 91.3692 107.762 91.5893C107.244 91.8109 106.762 92.1412 106.315 92.5829V87.7468H103.864V91.5103H102.993L100.17 97.6251L97.6109 91.5103H93.6202V92.5829C93.1794 92.1412 92.7003 91.8109 92.1813 91.5893C91.6629 91.3692 91.1079 91.2576 90.5172 91.2576C89.2329 91.2576 88.1408 91.7381 87.2425 92.6991C86.9242 93.0401 86.6627 93.4137 86.4576 93.8214C86.2525 93.4137 85.991 93.0401 85.6732 92.6991C84.7741 91.7381 83.6827 91.2576 82.398 91.2576C81.8065 91.2576 81.2522 91.3692 80.7339 91.5893C80.2153 91.8109 79.7327 92.1412 79.2865 92.5829V91.5103H76.8352V104.816H79.2865V100.221C79.7683 100.675 80.2537 101.004 80.743 101.207C81.2316 101.404 81.7588 101.502 82.3256 101.502C83.5974 101.502 84.6985 101.016 85.6277 100.043C85.9656 99.685 86.2424 99.299 86.4576 98.879C86.6729 99.299 86.9496 99.685 87.2874 100.043C88.2168 101.016 89.3167 101.502 90.5892 101.502C91.1561 101.502 91.681 101.404 92.164 101.207C92.6521 101.004 93.1372 100.675 93.6202 100.221V101.252H96.08V93.9004L98.8318 100.527L96.8057 104.816H99.3559L103.864 95.0939V101.252H106.315V100.221C106.797 100.675 107.283 101.004 107.771 101.207C108.26 101.404 108.788 101.502 109.355 101.502C110.627 101.502 111.726 101.016 112.655 100.043C113.028 99.6493 113.326 99.2199 113.549 98.7519C113.787 99.2045 114.098 99.6276 114.488 100.017C115.489 101.007 116.694 101.502 118.105 101.502C119.064 101.502 119.942 101.278 120.738 100.83C121.533 100.378 122.16 99.7501 122.619 98.9503C122.668 98.865 122.715 98.7798 122.759 98.693C123 99.1688 123.322 99.6106 123.726 100.017C124.728 101.007 125.934 101.502 127.345 101.502C128.304 101.502 129.183 101.278 129.977 100.83C130.713 100.412 131.304 99.8461 131.751 99.1316V101.252H134.22V96.7648L138.4 101.252H141.466L136.716 96.182L140.949 91.5103ZM83.7824 98.4483C83.2696 98.9923 82.6362 99.2636 81.8822 99.2636C81.1045 99.2636 80.4598 98.9986 79.947 98.4669C79.4346 97.9291 79.1782 97.2284 79.1782 96.362C79.1782 95.5141 79.4346 94.829 79.947 94.3036C80.4598 93.7781 81.1045 93.5146 81.8822 93.5146C82.6542 93.5146 83.2938 93.7828 83.8008 94.3206C84.3068 94.8523 84.5593 95.5358 84.5593 96.3713C84.5593 97.2129 84.3006 97.9058 83.7824 98.4483ZM92.9693 98.4669C92.456 98.9986 91.8114 99.2636 91.0328 99.2636C90.279 99.2636 89.6432 98.9923 89.1242 98.4483C88.6122 97.9058 88.3554 97.2129 88.3554 96.3713C88.3554 95.5358 88.609 94.8523 89.1155 94.3206C89.6224 93.7828 90.2582 93.5146 91.0242 93.5146C91.8079 93.5162 92.456 93.7781 92.9693 94.3036C93.4817 94.829 93.738 95.5141 93.738 96.362C93.738 97.2284 93.4817 97.9291 92.9693 98.4669ZM110.811 98.4483C110.298 98.9923 109.665 99.2636 108.912 99.2636C108.133 99.2636 107.488 98.9986 106.976 98.4669C106.463 97.9291 106.207 97.2284 106.207 96.362C106.207 95.5141 106.463 94.829 106.976 94.3036C107.488 93.7781 108.133 93.5146 108.912 93.5146C109.683 93.5146 110.322 93.7828 110.829 94.3206C111.335 94.8523 111.589 95.5358 111.589 96.3713C111.589 97.2129 111.329 97.9058 110.811 98.4483ZM120.051 98.4311C119.538 98.9628 118.896 99.2277 118.124 99.2277C117.352 99.2277 116.713 98.9658 116.206 98.4404C115.705 97.915 115.456 97.2283 115.456 96.3805C115.456 95.5575 115.709 94.8816 116.215 94.3561C116.727 93.8245 117.366 93.5595 118.134 93.5595C118.917 93.5595 119.558 93.8215 120.059 94.3468C120.567 94.8676 120.82 95.545 120.82 96.3805C120.82 97.2159 120.563 97.8994 120.051 98.4311ZM129.29 98.4311C128.778 98.9628 128.136 99.2277 127.364 99.2277C126.592 99.2277 125.953 98.9658 125.446 98.4404C124.946 97.915 124.696 97.2283 124.696 96.3805C124.696 95.5575 124.949 94.8816 125.455 94.3561C125.967 93.8245 126.608 93.5595 127.373 93.5595C128.156 93.5595 128.8 93.8215 129.3 94.3468C129.806 94.8676 130.059 95.545 130.059 96.3805C130.059 97.2159 129.803 97.8994 129.29 98.4311Z" fill="#C4C4CE"/>
<path id="by" fill-rule="evenodd" clip-rule="evenodd" d="M59.3932 100.691V91.2056H60.3887V93.5099C60.3887 94.026 60.3727 94.4893 60.3407 94.8998H60.3887C60.8525 94.2333 61.5402 93.9 62.4517 93.9C63.3153 93.9 63.986 94.1997 64.4638 94.7992C64.9416 95.3986 65.1805 96.247 65.1805 97.3443C65.1805 98.4416 64.9396 99.294 64.4578 99.9016C63.976 100.509 63.3073 100.813 62.4517 100.813C62.0239 100.813 61.6331 100.733 61.2793 100.572C60.9255 100.412 60.6286 100.165 60.3887 99.8315H60.3168L60.1069 100.691H59.3932ZM60.3885 97.3441C60.3885 98.2829 60.5425 98.9545 60.8503 99.3588C61.1582 99.7632 61.6519 99.9654 62.3316 99.9654C62.9433 99.9654 63.3991 99.7388 63.699 99.2857C63.9988 98.8326 64.1488 98.1813 64.1488 97.3319C64.1488 96.4622 63.9988 95.814 63.699 95.3873C63.3991 94.9606 62.9353 94.7472 62.3076 94.7472C61.628 94.7472 61.1382 94.9453 60.8383 95.3416C60.5385 95.7378 60.3885 96.4053 60.3885 97.3441ZM65.8755 94.0097H66.943L68.3823 97.8198C68.6982 98.6895 68.8941 99.3174 68.9701 99.7034H69.018C69.07 99.4962 69.179 99.1416 69.3449 98.6397C69.5108 98.1378 70.0535 96.5945 70.9731 94.0097H72.0406L69.2159 101.618C68.9361 102.369 68.6092 102.903 68.2354 103.218C67.8616 103.533 67.4028 103.69 66.8591 103.69C66.5552 103.69 66.2553 103.656 65.9595 103.587V102.776C66.1794 102.825 66.4253 102.849 66.6971 102.849C67.3808 102.849 67.8686 102.459 68.1604 101.679L68.5263 100.728L65.8755 94.0097Z" fill="#C4C4CE"/>
</g>
<g id="Sync Copy 25 + Group Copy 17 + Path + Path Copy Copy Copy Copy + Fill 3 + by Copy 2">
<g id="Sync Copy 25 + Group Copy 17 + Path + Path Copy Copy Copy Copy">
<path id="Sync Copy 25" fill-rule="evenodd" clip-rule="evenodd" d="M30.6287 41.1992C30.295 41.7407 29.9447 42.1468 29.5777 42.4175C29.2107 42.6883 28.738 42.8236 28.1597 42.8236C27.6481 42.8236 27.0976 42.6601 26.5082 42.3329C25.9187 42.0058 25.2514 41.6392 24.5063 41.2331C23.7611 40.8269 22.9104 40.4603 21.9539 40.1332C20.9974 39.806 19.9075 39.6425 18.6842 39.6425C16.5711 39.6425 14.9974 40.0993 13.9631 41.0131C12.9288 41.9268 12.4116 43.1621 12.4116 44.7188C12.4116 45.7115 12.723 46.535 13.3458 47.1893C13.9686 47.8436 14.7861 48.4076 15.7981 48.8814C16.8102 49.3552 17.9668 49.7895 19.268 50.1844C20.5693 50.5792 21.8983 51.0191 23.2551 51.5042C24.6119 51.9893 25.941 52.559 27.2422 53.2133C28.5434 53.8675 29.7 54.7023 30.7121 55.7176C31.7242 56.7329 32.5416 57.9681 33.1644 59.4233C33.7872 60.8786 34.0986 62.6327 34.0986 64.6858C34.0986 66.9646 33.7094 69.0966 32.9308 71.082C32.1523 73.0675 31.0235 74.7991 29.5443 76.2769C28.0652 77.7546 26.2413 78.9166 24.0725 79.7626C21.9038 80.6087 19.4404 81.0317 16.6823 81.0317C15.1698 81.0317 13.6294 80.8738 12.0613 80.5579C10.4932 80.2421 8.97508 79.7965 7.50703 79.2211C6.03898 78.6458 4.65993 77.9633 3.36982 77.1737C2.07972 76.384 0.956456 75.5041 0 74.534L3.33646 69.1869C3.58113 68.7808 3.9259 68.4536 4.37076 68.2054C4.81562 67.9573 5.29385 67.8332 5.80544 67.8332C6.47273 67.8332 7.14558 68.0475 7.824 68.4762C8.50241 68.9049 9.26979 69.3786 10.1262 69.8976C10.9825 70.4165 11.9668 70.8903 13.0789 71.3189C14.1911 71.7476 15.5034 71.9619 17.0159 71.9619C19.0623 71.9619 20.6527 71.5051 21.7871 70.5913C22.9215 69.6776 23.4887 68.228 23.4887 66.2426C23.4887 65.0919 23.1773 64.1556 22.5545 63.4337C21.9317 62.7117 21.1142 62.1138 20.1022 61.64C19.0901 61.1662 17.939 60.7488 16.6489 60.3878C15.3588 60.0269 14.0354 59.6264 12.6785 59.1864C11.3217 58.7465 9.99826 58.205 8.70816 57.562C7.41805 56.919 6.26699 56.0729 5.25492 55.0238C4.24286 53.9747 3.42543 52.6662 2.80263 51.0981C2.17982 49.5301 1.86842 47.5954 1.86842 45.2941C1.86842 43.4441 2.23542 41.6392 2.96945 39.8794C3.70347 38.1195 4.78225 36.5515 6.20581 35.1753C7.62938 33.799 9.37544 32.6991 11.4441 31.8756C13.5127 31.0521 15.8815 30.6404 18.5507 30.6404C20.041 30.6404 21.4923 30.7588 22.9048 30.9957C24.3172 31.2326 25.6574 31.5823 26.9252 32.0448C28.1931 32.5074 29.3775 33.0601 30.4785 33.7031C31.5796 34.3461 32.5638 35.0737 33.4313 35.886L30.6287 41.1992ZM53.8504 89.5937C53.539 90.2931 53.1608 90.8064 52.716 91.1335C52.2711 91.4607 51.5593 91.6242 50.5806 91.6242H42.8401L49.513 77.4104L35.7 45.3955H44.8419C45.6427 45.3955 46.2655 45.576 46.7104 45.937C47.1552 46.298 47.4666 46.7266 47.6446 47.223L53.3165 62.3505C53.8504 63.7494 54.2841 65.1482 54.6178 66.547C54.8402 65.825 55.0849 65.1143 55.3518 64.4149C55.6187 63.7155 55.8745 63.0048 56.1192 62.2829L61.2573 47.223C61.4353 46.7041 61.7856 46.2698 62.3083 45.9201C62.831 45.5704 63.3926 45.3955 63.9932 45.3955H72.3344L53.8504 89.5937ZM76.6054 80.4901V45.3956H83.0114C83.6564 45.3956 84.1958 45.5422 84.6296 45.8355C85.0633 46.1288 85.3691 46.5688 85.5471 47.1554C85.5471 47.1554 89.276 44.8541 96.2238 44.8541C98.1144 44.8541 99.7882 45.1869 101.245 45.8524C102.702 46.518 103.931 47.443 104.932 48.6275C105.933 49.812 106.689 51.2221 107.201 52.8578C107.712 54.4935 107.968 56.2703 107.968 58.188V80.4901H97.6251V58.188C97.6251 56.4733 97.2358 55.1366 96.4573 54.1777C95.6788 53.2188 94.5333 52.7394 93.0208 52.7394C91.8864 52.7394 90.8187 52.9876 89.8178 53.4839C88.8168 53.9803 87.8604 54.6458 86.9484 55.4806V80.4901H76.6054ZM140.265 53.7208C139.953 54.1044 139.653 54.4089 139.364 54.6345C139.075 54.8602 138.663 54.973 138.129 54.973C137.618 54.973 137.156 54.8489 136.745 54.6007C136.333 54.3525 135.872 54.0762 135.36 53.7716C134.848 53.467 134.248 53.1906 133.558 52.9424C132.869 52.6943 132.013 52.5702 130.989 52.5702C129.721 52.5702 128.626 52.8071 127.703 53.2809C126.78 53.7546 126.018 54.4315 125.417 55.3114C124.817 56.1913 124.372 57.2686 124.083 58.5433C123.794 59.8181 123.649 61.2564 123.649 62.8583C123.649 66.2199 124.289 68.8032 125.568 70.6082C126.847 72.4131 128.609 73.3156 130.856 73.3156C132.057 73.3156 133.008 73.1633 133.709 72.8587C134.409 72.5541 135.004 72.2157 135.494 71.8434C135.983 71.4711 136.433 71.1271 136.845 70.8112C137.256 70.4953 137.773 70.3374 138.396 70.3374C139.219 70.3374 139.842 70.642 140.265 71.2512L143.268 75.0077C142.2 76.2486 141.077 77.2582 139.898 78.0366C138.719 78.8149 137.512 79.4241 136.278 79.8641C135.043 80.304 133.803 80.6086 132.557 80.7778C131.312 80.947 130.1 81.0316 128.921 81.0316C126.808 81.0316 124.789 80.6255 122.865 79.8133C120.941 79.0011 119.251 77.8222 117.794 76.2768C116.337 74.7313 115.18 72.8305 114.324 70.5743C113.467 68.3181 113.039 65.7462 113.039 62.8583C113.039 60.3313 113.412 57.968 114.157 55.7683C114.902 53.5685 116.003 51.6621 117.46 50.0489C118.917 48.4357 120.719 47.1667 122.865 46.2416C125.012 45.3166 127.497 44.8541 130.322 44.8541C133.036 44.8541 135.416 45.294 137.462 46.1739C139.508 47.0539 141.355 48.3399 143.001 50.032L140.265 53.7208Z" fill="white"/>
<g id="icon">
<path id="Combined Shape" fill-rule="evenodd" clip-rule="evenodd" d="M199.72 12.706C202.051 10.8392 205.61 10.4658 210.886 10.4658V0.0113268C201.438 -0.113131 194.812 0.758074 190.64 4.11844C186.468 7.4788 184.628 13.0794 184.628 22.4137V46.5586C184.628 47.4298 184.26 49.5455 183.155 51.4124C182.051 53.4037 180.088 55.0217 176.775 55.0217V64.9783C180.088 65.1028 182.051 66.8452 183.155 68.7121C184.26 70.7034 184.628 72.5702 184.628 73.4415V97.5863C184.628 106.921 186.468 112.521 190.64 115.882C194.812 119.242 201.438 120.113 210.886 119.989V109.534C205.61 109.534 202.051 109.161 199.72 107.294C197.389 105.427 196.407 102.565 196.407 97.5863V73.4415C196.407 66.9696 193.585 63.1115 188.8 60C193.585 57.013 196.407 53.1548 196.407 46.5586V22.4137C196.407 17.4354 197.389 14.5729 199.72 12.706ZM332.45 51.4124C331.346 49.5455 330.978 47.4298 330.978 46.5586V22.4137C330.978 13.0794 329.26 7.4788 325.088 4.11844C320.916 0.758074 314.168 -0.113131 304.72 0.0113268V10.4658C309.996 10.4658 313.554 10.8392 315.885 12.706C318.217 14.5729 319.198 17.4354 319.198 22.4137V46.5586C319.198 53.1548 322.02 57.013 326.806 60C322.02 63.1115 319.198 66.9696 319.198 73.4415V97.5863C319.198 102.565 318.217 105.427 315.885 107.294C313.554 109.161 309.996 109.534 304.72 109.534V119.989C314.168 120.113 320.916 119.242 325.088 115.882C329.26 112.521 330.978 106.921 330.978 97.5863V73.4415C330.978 72.5702 331.346 70.7034 332.45 68.7121C333.554 66.8452 335.518 65.1028 338.83 64.9783V55.0217C335.518 55.0217 333.554 53.4037 332.45 51.4124Z" fill="#637084"/>
<rect id="Path" x="303.389" y="39.335" width="62.3889" height="15.1445" rx="7.57225" transform="rotate(-180 303.389 39.335)" fill="#F54376"/>
<rect id="Path_2" x="303.389" y="67.7" width="39.4597" height="15.1445" rx="7.57225" transform="rotate(-180 303.389 67.7)" fill="#B287EE"/>
<rect id="Path Copy 2" x="232.47" y="67.7" width="19.7298" height="15.1445" rx="7.57225" transform="rotate(-180 232.47 67.7)" fill="#6ADDCE"/>
<rect id="Path_3" x="303.389" y="97.7495" width="19.7298" height="15.1445" rx="7.57225" transform="rotate(-180 303.389 97.7495)" fill="#6690FF"/>
<rect id="Path_4" x="252.198" y="97.7495" width="39.4597" height="15.1445" rx="7.57225" transform="rotate(-180 252.198 97.7495)" fill="#FFC22C"/>
</g>
</g>
</g>
</g>
</svg>
